<svg xmlns="http://www.w3.org/2000/svg" viewBox="0 0 640 460" role="img"><defs><linearGradient id="g" x1="0" x2="1" y1="0" y2="1"><stop stop-color="#d9f99d"/><stop offset="1" stop-color="#86efac"/></linearGradient></defs><rect width="640" height="460" rx="34" fill="#f7fee7"/><circle cx="510" cy="95" r="70" fill="url(#g)"/><path fill="#12372a" d="M91 258h302l45-82h70c28 0 51 23 51 51v31h22v48h-43a58 58 0 0 1-116 0H244a58 58 0 0 1-116 0H91z"/><path fill="#fb923c" d="M112 139h268v119H112z"/><path fill="#fff7ed" d="M401 191h88c15 0 28 12 28 28v39H366z"/><path fill="#16a34a" d="M138 106h51v33h-51zm80-27h55v60h-55zm84 15h46v45h-46z"/><circle cx="186" cy="306" r="34" fill="#111827"/><circle cx="480" cy="306" r="34" fill="#111827"/><circle cx="186" cy="306" r="14" fill="#e5e7eb"/><circle cx="480" cy="306" r="14" fill="#e5e7eb"/><path fill="none" stroke="#12372a" stroke-width="10" stroke-linecap="round" d="M92 374h456"/><text x="137" y="213" fill="#fff" font-family="Arial,sans-serif" font-size="34" font-weight="700">JUNK HAUL</text></svg>
